<svg xmlns="http://www.w3.org/2000/svg" viewBox="0 0 266.09 123.09"><defs><style>.cls-1{fill:#1d1d1b;}</style></defs><g id="Calque_2" data-name="Calque 2"><g id="Logo"><g id="Logo_SansTexte_Noir"><g id="EITs"><path class="cls-1" d="M139.71,46H175v6.18H146.36V69.79H173V76H146.36v20h30v6.18H139.71Z"/><path class="cls-1" d="M186.13,46h6.65v56.07h-6.65Z"/><path class="cls-1" d="M243.79,52.22H225.26v49.89h-6.65V52.22H200.08V46h43.71Z"/><path class="cls-1" d="M242.18,91.6a15.31,15.31,0,0,0,3.94,3.58,10.07,10.07,0,0,0,5.41,1.32,13.27,13.27,0,0,0,2.84-.31,8.36,8.36,0,0,0,2.62-1,5.69,5.69,0,0,0,1.86-1.75,4.46,4.46,0,0,0,.7-2.54,4.11,4.11,0,0,0-.66-2.41,5.85,5.85,0,0,0-1.75-1.59,9.33,9.33,0,0,0-2.49-1c-.93-.26-1.9-.5-2.88-.71-1.71-.36-3.36-.78-4.91-1.24a16,16,0,0,1-4.09-1.83,8.44,8.44,0,0,1-2.8-2.93,8.93,8.93,0,0,1-1.06-4.59,9.15,9.15,0,0,1,1.17-4.67,10.1,10.1,0,0,1,3.12-3.35,15.3,15.3,0,0,1,4.36-2,18.06,18.06,0,0,1,5-.69,16.61,16.61,0,0,1,7.19,1.55,11.19,11.19,0,0,1,5.18,5.07l-5.05,3.34a9.47,9.47,0,0,0-3.08-3.15,8.56,8.56,0,0,0-4.63-1.21,10.63,10.63,0,0,0-2.54.31,8.26,8.26,0,0,0-2.29.93,5.47,5.47,0,0,0-1.68,1.6,3.92,3.92,0,0,0-.66,2.23,2.86,2.86,0,0,0,.74,2,6.48,6.48,0,0,0,2,1.44,17.05,17.05,0,0,0,3,1.09,33.79,33.79,0,0,0,3.47.78A35,35,0,0,1,258.77,81a13.17,13.17,0,0,1,3.82,2,8.65,8.65,0,0,1,2.57,3.11,10.27,10.27,0,0,1,.93,4.6,10,10,0,0,1-4.55,8.84,14.66,14.66,0,0,1-4.68,2,23.12,23.12,0,0,1-5.33.62,20.7,20.7,0,0,1-8.06-1.43,14.6,14.6,0,0,1-6.12-5.35Z"/></g><path id="G" class="cls-1" d="M93.41,67.07v6.64h23.86c-7,17-15.13,29.38-32.07,37.43a54.95,54.95,0,1,1,19.66-83.55l5.23-4.09A62,62,0,0,0,35.19,5.89a61.58,61.58,0,0,0,26.53,117.2,61.13,61.13,0,0,0,26.33-6c17.49-8.31,26.69-20.93,33.83-37.21v22.26h6.64V67.07Z"/></g></g></g></svg>