<?xml version="1.0" encoding="UTF-8"?><svg id="Calque_2" xmlns="http://www.w3.org/2000/svg" viewBox="0 0 16.01 16"><defs><style>.cls-1{fill:#db2c5d;}</style></defs><g id="Calque_1-2"><path id="Tracé_110" class="cls-1" d="M9.3,11.43l1.71-1.57c.11-.11,.27-.16,.43-.14l.29,.14,4,1.86c.29,.14,.29,.29,.29,.57-.02,.98-.43,1.9-1.14,2.57-.8,.77-1.89,1.19-3,1.14-1.39,0-2.77-.35-4-1-1.45-.77-2.8-1.73-4-2.86-.8-.99-1.51-2.04-2.14-3.14-.57-1-1.04-2.06-1.43-3.14C.06,4.97-.04,4.06,.01,3.14c.09-.8,.44-1.56,1-2.14C1.78,.37,2.73,.01,3.73,0c.22,0,.43,.11,.57,.29l2.14,4c.02,.11,.07,.21,.14,.29,.02,.16-.03,.31-.14,.43l-1.86,1.71c-.15,.22-.15,.5,0,.71,.49,.82,1.06,1.59,1.71,2.29,.7,.7,1.46,1.32,2.29,1.86,.29,.14,.57,.14,.71-.14Z"/></g></svg>