<?xml version="1.0" encoding="UTF-8"?><svg id="Calque_2" xmlns="http://www.w3.org/2000/svg" viewBox="0 0 38 38"><defs><style>.cls-1{fill:#db2c5d;}</style></defs><g id="Calque_1-2"><g><path class="cls-1" d="M7.54,19.72l7.22,7.03s.19,.17,.28,.2l.26,.14c.21,.08,.43,.13,.67,.13,.25,0,.47-.06,.74-.18l.09-.06c.14-.07,.26-.15,.38-.27l13.29-12.94c.67-.67,.69-1.75,.04-2.44-.32-.34-.75-.54-1.22-.55-.5-.02-.92,.16-1.26,.48l-12.07,11.75-5.98-5.82c-.69-.65-1.76-.64-2.44,.03-.33,.33-.52,.77-.52,1.24,0,.47,.18,.91,.52,1.25Z"/><path class="cls-1" d="M19,0C8.52,0,0,8.52,0,19s8.52,19,19,19c10.46-.01,18.99-8.54,19-19C38,8.52,29.48,0,19,0Zm0,3.51c8.53,0,15.48,6.96,15.49,15.49,0,4.14-1.61,8.03-4.54,10.95-2.93,2.93-6.82,4.54-10.95,4.54-8.54,0-15.49-6.95-15.49-15.49,0-8.54,6.95-15.49,15.49-15.49Z"/></g></g></svg>